<svg width="31" height="26" viewBox="0 0 31 26" fill="none" xmlns="http://www.w3.org/2000/svg">
<ellipse cx="5.81041" cy="16.6683" rx="3.26156" ry="5.0633" transform="rotate(-41.949 5.81041 16.6683)" fill="#624312"/>
<path d="M11.9154 21.5138C12.4356 20.9323 12.6396 20.7862 12.8089 20.0246C12.9603 19.3433 12.9177 18.9269 12.8089 18.2375C12.6941 17.5109 12.5236 17.1174 12.2132 16.4505C11.9271 15.8356 11.4868 15.6186 11.3197 14.9613C11.1764 14.3976 11.1241 14.0197 11.3197 13.4721C11.4607 13.0771 11.6357 12.8911 11.9154 12.5785C12.3031 12.1451 12.5763 11.9236 13.1067 11.685C13.6476 11.4417 14.0062 11.4504 14.5959 11.3872C15.2898 11.3128 15.6936 11.2783 16.383 11.3872C17.1096 11.5019 17.4676 11.7644 18.17 11.9828C18.9786 12.2343 19.4727 12.2541 20.2549 12.5785C20.7354 12.7778 20.989 12.9262 21.4463 13.1742C22.0425 13.4976 22.4097 13.6393 22.9355 14.0677C23.6398 14.6415 24.0741 15.0167 24.4247 15.8548C24.6978 16.5075 24.6646 16.9367 24.7225 17.6418C24.7797 18.3374 24.768 18.7325 24.7225 19.4289C24.669 20.2496 24.6984 20.7382 24.4247 21.5138C24.2516 22.0043 24.14 22.2882 23.829 22.7051C23.3837 23.3021 22.9463 23.4642 22.3398 23.8965C21.9983 24.1399 21.8133 24.2893 21.4463 24.4922C20.8981 24.7952 20.5592 24.9151 19.9571 25.0879C19.277 25.283 18.8752 25.3278 18.17 25.3857C17.4745 25.4429 17.0785 25.4429 16.383 25.3857C15.6778 25.3278 15.2917 25.2164 14.5959 25.0879C14.0127 24.9801 13.6466 25.0355 13.1067 24.79C12.7249 24.6165 11.8434 24.2406 11.5 23.9999C11.0237 23.6661 11.331 23.9781 11 23.4999C10.852 23.2861 10.5199 22.7592 10.5 22.4999C10.4554 21.92 11.5276 21.9472 11.9154 21.5138Z" fill="#624312"/>
<ellipse cx="9.51545" cy="7.04752" rx="3.26156" ry="5.0633" transform="rotate(-19.2726 9.51545 7.04752)" fill="#624312"/>
<ellipse cx="17.8545" cy="5.24911" rx="3.26156" ry="5.0633" transform="rotate(-3.42424 17.8545 5.24911)" fill="#624312"/>
<ellipse cx="25.589" cy="7.6394" rx="3.26156" ry="5.0633" transform="rotate(19.1196 25.589 7.6394)" fill="#624312"/>
</svg>
