<svg width="27" height="26" viewBox="0 0 27 26" fill="none" xmlns="http://www.w3.org/2000/svg">
<path d="M25.5475 1L15.2537 8.61673L17.1679 4.12794L25.5475 1Z" fill="#E17726" stroke="#E17726" stroke-width="0.25" stroke-linecap="round" stroke-linejoin="round"/>
<path d="M1.80328 1L12.0055 8.68782L10.183 4.12794L1.80328 1Z" fill="#E27625" stroke="#E27625" stroke-width="0.25" stroke-linecap="round" stroke-linejoin="round"/>
<path d="M21.8409 18.6594L19.102 22.8436L24.9668 24.4583L26.6468 18.7509L21.8409 18.6594Z" fill="#E27625" stroke="#E27625" stroke-width="0.25" stroke-linecap="round" stroke-linejoin="round"/>
<path d="M0.713715 18.7509L2.38353 24.4583L8.23811 22.8436L5.50936 18.6594L0.713715 18.7509Z" fill="#E27625" stroke="#E27625" stroke-width="0.25" stroke-linecap="round" stroke-linejoin="round"/>
<path d="M7.92249 11.5941L6.29343 14.0517L12.0971 14.3158L11.9036 8.07007L7.92249 11.5941Z" fill="#E27625" stroke="#E27625" stroke-width="0.25" stroke-linecap="round" stroke-linejoin="round"/>
<path d="M19.4278 11.5914L15.3857 7.99634L15.2533 14.3132L21.0569 14.0491L19.4278 11.5914Z" fill="#E27625" stroke="#E27625" stroke-width="0.25" stroke-linecap="round" stroke-linejoin="round"/>
<path d="M8.23816 22.8431L11.7509 21.1471L8.72691 18.791L8.23816 22.8431Z" fill="#E27625" stroke="#E27625" stroke-width="0.25" stroke-linecap="round" stroke-linejoin="round"/>
<path d="M15.5995 21.1471L19.102 22.8431L18.6235 18.791L15.5995 21.1471Z" fill="#E27625" stroke="#E27625" stroke-width="0.25" stroke-linecap="round" stroke-linejoin="round"/>
<path d="M19.102 22.8461L15.5995 21.1501L15.8846 23.425L15.854 24.3898L19.102 22.8461Z" fill="#D5BFB2" stroke="#D5BFB2" stroke-width="0.25" stroke-linecap="round" stroke-linejoin="round"/>
<path d="M8.23816 22.8461L11.4964 24.3898L11.476 23.425L11.7509 21.1501L8.23816 22.8461Z" fill="#D5BFB2" stroke="#D5BFB2" stroke-width="0.25" stroke-linecap="round" stroke-linejoin="round"/>
<path d="M11.5575 17.2902L8.64551 16.4372L10.7022 15.4927L11.5575 17.2902Z" fill="#233447" stroke="#233447" stroke-width="0.25" stroke-linecap="round" stroke-linejoin="round"/>
<path d="M15.7932 17.2902L16.6485 15.4927L18.7154 16.4372L15.7932 17.2902Z" fill="#233447" stroke="#233447" stroke-width="0.25" stroke-linecap="round" stroke-linejoin="round"/>
<path d="M8.23799 22.8436L8.74711 18.6594L5.50928 18.7509L8.23799 22.8436Z" fill="#CC6228" stroke="#CC6228" stroke-width="0.25" stroke-linecap="round" stroke-linejoin="round"/>
<path d="M18.6033 18.6594L19.1022 22.8436L21.8411 18.7509L18.6033 18.6594Z" fill="#CC6228" stroke="#CC6228" stroke-width="0.25" stroke-linecap="round" stroke-linejoin="round"/>
<path d="M21.0569 14.0486L15.2533 14.3126L15.7929 17.2883L16.6482 15.4907L18.7152 16.4352L21.0569 14.0486Z" fill="#CC6228" stroke="#CC6228" stroke-width="0.25" stroke-linecap="round" stroke-linejoin="round"/>
<path d="M8.64542 16.4352L10.7021 15.4907L11.5575 17.2883L12.0971 14.3126L6.29343 14.0486L8.64542 16.4352Z" fill="#CC6228" stroke="#CC6228" stroke-width="0.25" stroke-linecap="round" stroke-linejoin="round"/>
<path d="M6.29343 14.0486L8.7269 18.7913L8.64539 16.4352L6.29343 14.0486Z" fill="#E27525" stroke="#E27525" stroke-width="0.25" stroke-linecap="round" stroke-linejoin="round"/>
<path d="M18.7153 16.4352L18.6237 18.7913L21.0571 14.0486L18.7153 16.4352Z" fill="#E27525" stroke="#E27525" stroke-width="0.25" stroke-linecap="round" stroke-linejoin="round"/>
<path d="M12.0972 14.3142L11.5575 17.2899L12.2397 20.8037L12.3925 16.1727L12.0972 14.3142Z" fill="#E27525" stroke="#E27525" stroke-width="0.25" stroke-linecap="round" stroke-linejoin="round"/>
<path d="M15.2534 14.3142L14.9683 16.1626L15.1108 20.8037L15.793 17.2899L15.2534 14.3142Z" fill="#E27525" stroke="#E27525" stroke-width="0.25" stroke-linecap="round" stroke-linejoin="round"/>
<path d="M15.7931 17.2899L15.111 20.8037L15.5997 21.149L18.6237 18.7929L18.7154 16.4368L15.7931 17.2899Z" fill="#F5841F" stroke="#F5841F" stroke-width="0.25" stroke-linecap="round" stroke-linejoin="round"/>
<path d="M8.64551 16.4368L8.72702 18.7929L11.751 21.149L12.2397 20.8037L11.5575 17.2899L8.64551 16.4368Z" fill="#F5841F" stroke="#F5841F" stroke-width="0.25" stroke-linecap="round" stroke-linejoin="round"/>
<path d="M15.8542 24.3904L15.8847 23.4256L15.62 23.2021H11.7306L11.476 23.4256L11.4964 24.3904L8.23816 22.8467L9.37852 23.781L11.6898 25.3755H15.6505L17.972 23.781L19.1021 22.8467L15.8542 24.3904Z" fill="#C0AC9D" stroke="#C0AC9D" stroke-width="0.25" stroke-linecap="round" stroke-linejoin="round"/>
<path d="M15.5996 21.1482L15.1109 20.803H12.2396L11.7509 21.1482L11.476 23.4231L11.7305 23.1997H15.62L15.8847 23.4231L15.5996 21.1482Z" fill="#161616" stroke="#161616" stroke-width="0.25" stroke-linecap="round" stroke-linejoin="round"/>
<path d="M25.9849 9.11434L26.8504 4.90992L25.5471 1L15.5995 8.36287L19.4278 11.5923L24.8344 13.1665L26.0257 11.7752L25.5065 11.3994L26.3311 10.6479L25.6999 10.1604L26.5246 9.53074L25.9849 9.11434Z" fill="#763E1A" stroke="#763E1A" stroke-width="0.25" stroke-linecap="round" stroke-linejoin="round"/>
<path d="M0.5 4.90992L1.37564 9.11434L0.81564 9.53074L1.65055 10.1604L1.01927 10.6479L1.844 11.3994L1.32473 11.7752L2.516 13.1665L7.9226 11.5923L11.7509 8.36287L1.80328 1L0.5 4.90992Z" fill="#763E1A" stroke="#763E1A" stroke-width="0.25" stroke-linecap="round" stroke-linejoin="round"/>
<path d="M24.8346 13.1661L19.428 11.592L21.0571 14.0497L18.6237 18.7924L21.8411 18.7518H26.6469L24.8346 13.1661Z" fill="#F5841F" stroke="#F5841F" stroke-width="0.25" stroke-linecap="round" stroke-linejoin="round"/>
<path d="M7.92242 11.592L2.5159 13.1661L0.713715 18.7518H5.50936L8.72678 18.7924L6.29336 14.0497L7.92242 11.592Z" fill="#F5841F" stroke="#F5841F" stroke-width="0.25" stroke-linecap="round" stroke-linejoin="round"/>
<path d="M15.2535 14.3136L15.5996 8.36231L17.1676 4.12744H10.1829L11.7509 8.36231L12.097 14.3136L12.2294 16.1822L12.2396 20.803H15.1109L15.1211 16.1822L15.2535 14.3136Z" fill="#F5841F" stroke="#F5841F" stroke-width="0.25" stroke-linecap="round" stroke-linejoin="round"/>
</svg>
