<svg width="393" height="65" viewBox="0 0 393 65" fill="none" xmlns="http://www.w3.org/2000/svg">
<path d="M0 0H394V41.9825C394 41.9825 367.295 47.7342 348.268 50.0873C328.53 52.5282 316.63 53.7805 295.5 53.9776C271.3 54.2032 255.629 54.0077 234.691 50.0873C219.087 47.1655 215.273 43.4815 201.523 39.7132C186.327 35.5485 179.275 31.9794 160.314 29.9875C141.466 28.0075 127.421 27.2175 109.556 29.9875C94.9176 32.2573 91.0527 35.6213 80.9107 39.7132C68.128 44.8706 52.7679 53.9776 52.7679 53.9776C52.7679 53.9776 41.4587 59.2316 31.1582 61.4339C20.3965 63.7348 0 65 0 65V0Z" fill="#F9D49B"/>
</svg>
