<svg width="106" height="46" viewBox="0 0 106 46" fill="none" xmlns="http://www.w3.org/2000/svg">
<rect width="106" height="46" rx="16" fill="#F9D49B"/>
<path d="M38.664 24.852H40.908V30.53H38.664V24.852ZM32.697 24.189H46.926V26.025H32.697V24.189ZM38.647 17.593H40.636V17.967C40.636 20.602 38.358 22.897 34.193 23.39L33.411 21.622C36.964 21.214 38.647 19.429 38.647 17.967V17.593ZM38.936 17.593H40.925V17.967C40.925 19.395 42.625 21.214 46.161 21.622L45.362 23.39C41.214 22.914 38.936 20.534 38.936 17.967V17.593ZM33.972 16.573H45.634V18.358H33.972V16.573ZM38.664 14.805H40.908V17.185H38.664V14.805ZM58.3827 14.754H60.6607V30.496H58.3827V14.754ZM60.0657 20.772H62.8367V22.625H60.0657V20.772ZM54.2517 16.386H56.4617C56.4617 21.112 54.6597 25.158 49.4237 27.793L48.1657 26.076C52.2967 23.934 54.2517 21.044 54.2517 16.777V16.386ZM49.0327 16.386H55.4077V18.205H49.0327V16.386ZM74.0553 14.771H76.2993V30.513H74.0553V14.771ZM75.7893 20.908H78.5773V22.795H75.7893V20.908ZM63.8893 17.1H73.0523V18.902H63.8893V17.1ZM68.4963 19.786C70.7913 19.786 72.4913 21.35 72.4913 23.543C72.4913 25.736 70.7913 27.3 68.4963 27.3C66.2013 27.3 64.5013 25.736 64.5013 23.543C64.5013 21.35 66.2013 19.786 68.4963 19.786ZM68.4963 21.622C67.4253 21.622 66.6603 22.336 66.6603 23.543C66.6603 24.75 67.4253 25.464 68.4963 25.464C69.5673 25.464 70.3323 24.75 70.3323 23.543C70.3323 22.336 69.5673 21.622 68.4963 21.622ZM67.3573 15.026H69.6183V17.78H67.3573V15.026ZM90.442 14.771H92.72V30.513H90.442V14.771ZM85.801 16.403H88.045C88.045 21.214 86.413 25.158 80.82 27.861L79.647 26.059C84.169 23.883 85.801 21.027 85.801 16.811V16.403ZM80.48 16.403H86.872V18.188H80.48V16.403Z" fill="white"/>
<path d="M9 22.9224H25" stroke="white" stroke-width="2" stroke-linecap="round"/>
<path d="M17.2075 30L17.2075 16" stroke="white" stroke-width="2" stroke-linecap="round"/>
</svg>
