<svg width="21" height="20" viewBox="0 0 21 20" fill="none" xmlns="http://www.w3.org/2000/svg">
<path fill-rule="evenodd" clip-rule="evenodd" d="M2.30168 2.29289C2.48922 2.10536 2.74357 2 3.00879 2H14.0088C14.5611 2 15.0088 1.55228 15.0088 1C15.0088 0.447715 14.5611 0 14.0088 0H3.00879C2.21314 0 1.45008 0.31607 0.887469 0.87868C0.324859 1.44129 0.00878906 2.20435 0.00878906 3V17C0.00878906 17.7957 0.32486 18.5587 0.887469 19.1213C1.45008 19.6839 2.21314 20 3.00879 20H17.0088C17.8044 20 18.5675 19.6839 19.1301 19.1213C19.6927 18.5587 20.0088 17.7957 20.0088 17V10C20.0088 9.44771 19.5611 9 19.0088 9C18.4565 9 18.0088 9.44771 18.0088 10V17C18.0088 17.2652 17.9034 17.5196 17.7159 17.7071C17.5284 17.8946 17.274 18 17.0088 18H3.00879C2.74357 18 2.48922 17.8946 2.30168 17.7071C2.11415 17.5196 2.00879 17.2652 2.00879 17V3C2.00879 2.73478 2.11415 2.48043 2.30168 2.29289ZM10.7159 12.7071L20.7159 2.70711C21.1064 2.31658 21.1064 1.68342 20.7159 1.29289C20.3254 0.902369 19.6922 0.902369 19.3017 1.29289L10.0088 10.5858L7.7159 8.29289C7.32537 7.90237 6.69221 7.90237 6.30168 8.29289C5.91116 8.68342 5.91116 9.31658 6.30168 9.70711L9.30168 12.7071C9.69221 13.0976 10.3254 13.0976 10.7159 12.7071Z" fill="#4A4343"/>
</svg>
