<svg width="66" height="32" viewBox="0 0 66 32" fill="none" xmlns="http://www.w3.org/2000/svg">
<rect x="0.00878906" width="66" height="32" rx="16" fill="#97CDFF"/>
<circle cx="12.5088" cy="16.5" r="7.5" fill="white"/>
<path d="M28.3368 12.96H29.7448V13.816H28.3368V12.96ZM29.4648 11.304H30.5288V15.352H29.4648V11.304ZM25.6088 15.656H26.6648V16.328H29.4728V15.656H30.5288V18.632H25.6088V15.656ZM26.6648 17.152V17.784H29.4728V17.152H26.6648ZM26.0408 11.872H26.9048V12.344C26.9048 13.736 26.2488 15.024 24.8248 15.496L24.2888 14.648C25.5128 14.248 26.0408 13.28 26.0408 12.344V11.872ZM26.2648 11.872H27.1208V12.344C27.1208 13.208 27.6248 14.128 28.7928 14.52L28.2728 15.344C26.8968 14.888 26.2648 13.664 26.2648 12.344V11.872ZM24.5768 11.64H28.5608V12.488H24.5768V11.64ZM34.4962 13.96H35.5522V15.288H34.4962V13.96ZM31.6882 14.848H38.3842V15.688H31.6882V14.848ZM35.0242 16.096C36.6322 16.096 37.5922 16.568 37.5922 17.408C37.5922 18.248 36.6322 18.712 35.0242 18.712C33.4162 18.712 32.4482 18.248 32.4482 17.408C32.4482 16.568 33.4162 16.096 35.0242 16.096ZM35.0242 16.896C34.0242 16.896 33.5282 17.056 33.5282 17.408C33.5282 17.768 34.0242 17.92 35.0242 17.92C36.0242 17.92 36.5202 17.768 36.5202 17.408C36.5202 17.056 36.0242 16.896 35.0242 16.896ZM34.3042 12H35.2482V12.184C35.2482 13.296 34.2482 14.2 32.3362 14.384L31.9682 13.544C33.5922 13.408 34.3042 12.76 34.3042 12.184V12ZM34.8242 12H35.7682V12.184C35.7682 12.76 36.4722 13.408 38.1042 13.544L37.7362 14.384C35.8322 14.2 34.8242 13.304 34.8242 12.184V12ZM32.2962 11.608H37.7842V12.448H32.2962V11.608ZM42.759 14.304H43.823V15.424H42.759V14.304ZM43.279 11.6C44.351 11.6 45.127 12.216 45.127 13.112C45.127 13.992 44.351 14.608 43.279 14.608C42.207 14.608 41.431 13.992 41.431 13.112C41.431 12.216 42.207 11.6 43.279 11.6ZM43.279 12.4C42.775 12.4 42.423 12.656 42.423 13.112C42.423 13.56 42.775 13.816 43.279 13.816C43.791 13.816 44.135 13.56 44.135 13.112C44.135 12.656 43.791 12.4 43.279 12.4ZM45.887 11.312H46.951V16.96H45.887V11.312ZM46.575 13.632H47.879V14.504H46.575V13.632ZM42.007 17.728H47.199V18.584H42.007V17.728ZM42.007 16.472H43.079V18.096H42.007V16.472ZM41.167 16L41.047 15.152C42.303 15.152 44.039 15.144 45.495 14.936L45.567 15.696C44.071 15.976 42.391 16 41.167 16ZM50.1344 15.624H51.1744V17.368H50.1344V15.624ZM52.4784 15.616H53.5184V17.368H52.4784V15.616ZM48.4384 17.032H55.1424V17.896H48.4384V17.032ZM49.1904 11.784H54.3904V14.24H50.2624V15.496H49.2064V13.408H53.3344V12.624H49.1904V11.784ZM49.2064 15.048H54.5584V15.904H49.2064V15.048Z" fill="white"/>
</svg>
