<svg width="67" height="32" viewBox="0 0 67 32" fill="none" xmlns="http://www.w3.org/2000/svg">
<rect width="67" height="32" rx="16" fill="#FF4144"/>
<circle cx="13.5" cy="16.5" r="7.5" fill="white"/>
<path d="M25.688 12.968H29.248V17.952H25.688V12.968ZM28.208 13.8H26.736V17.112H28.208V13.8ZM30.4 12.296H31.472V19.728H30.4V12.296ZM36.6874 13.96H38.0954V14.816H36.6874V13.96ZM37.8154 12.304H38.8794V16.352H37.8154V12.304ZM33.9594 16.656H35.0154V17.328H37.8234V16.656H38.8794V19.632H33.9594V16.656ZM35.0154 18.152V18.784H37.8234V18.152H35.0154ZM34.3914 12.872H35.2554V13.344C35.2554 14.736 34.5994 16.024 33.1754 16.496L32.6394 15.648C33.8634 15.248 34.3914 14.28 34.3914 13.344V12.872ZM34.6154 12.872H35.4714V13.344C35.4714 14.208 35.9754 15.128 37.1434 15.52L36.6234 16.344C35.2474 15.888 34.6154 14.664 34.6154 13.344V12.872ZM32.9274 12.64H36.9114V13.488H32.9274V12.64ZM42.8468 14.96H43.9028V16.288H42.8468V14.96ZM40.0388 15.848H46.7348V16.688H40.0388V15.848ZM43.3748 17.096C44.9828 17.096 45.9428 17.568 45.9428 18.408C45.9428 19.248 44.9828 19.712 43.3748 19.712C41.7668 19.712 40.7988 19.248 40.7988 18.408C40.7988 17.568 41.7668 17.096 43.3748 17.096ZM43.3748 17.896C42.3748 17.896 41.8788 18.056 41.8788 18.408C41.8788 18.768 42.3748 18.92 43.3748 18.92C44.3748 18.92 44.8708 18.768 44.8708 18.408C44.8708 18.056 44.3748 17.896 43.3748 17.896ZM42.6548 13H43.5988V13.184C43.5988 14.296 42.5988 15.2 40.6868 15.384L40.3188 14.544C41.9428 14.408 42.6548 13.76 42.6548 13.184V13ZM43.1748 13H44.1188V13.184C44.1188 13.76 44.8228 14.408 46.4548 14.544L46.0868 15.384C44.1828 15.2 43.1748 14.304 43.1748 13.184V13ZM40.6468 12.608H46.1348V13.448H40.6468V12.608Z" fill="white"/>
</svg>
